<svg width="12" height="13" viewBox="0 0 12 13" fill="none" xmlns="http://www.w3.org/2000/svg">
<path fill-rule="evenodd" clip-rule="evenodd" d="M5.15914 0.146227C5.25289 0.0525931 5.37997 0 5.51247 0C5.64497 0 5.77206 0.0525931 5.86581 0.146227L10.8658 5.14623C10.9149 5.192 10.9543 5.2472 10.9817 5.30853C11.009 5.36987 11.0237 5.43608 11.0249 5.50321C11.0261 5.57035 11.0137 5.63703 10.9886 5.69929C10.9634 5.76155 10.926 5.81811 10.8785 5.86559C10.831 5.91306 10.7745 5.95049 10.7122 5.97564C10.6499 6.00079 10.5833 6.01314 10.5161 6.01195C10.449 6.01077 10.3828 5.99608 10.3214 5.96875C10.2601 5.94142 10.2049 5.90202 10.1591 5.85289L6.01247 1.70623V12.4996C6.01247 12.6322 5.95979 12.7593 5.86603 12.8531C5.77226 12.9469 5.64508 12.9996 5.51247 12.9996C5.37986 12.9996 5.25269 12.9469 5.15892 12.8531C5.06515 12.7593 5.01247 12.6322 5.01247 12.4996V1.70623L0.865806 5.85289C0.820031 5.90202 0.764831 5.94142 0.703498 5.96875C0.642165 5.99608 0.575956 6.01077 0.508821 6.01195C0.441685 6.01314 0.374999 6.00079 0.31274 5.97564C0.250482 5.95049 0.193926 5.91306 0.146447 5.86559C0.0989675 5.81811 0.0615377 5.76155 0.0363904 5.69929C0.0112431 5.63703 -0.00110671 5.57035 7.78141e-05 5.50321C0.00126234 5.43608 0.015957 5.36987 0.043285 5.30853C0.070613 5.2472 0.110014 5.192 0.159139 5.14623L5.15914 0.146227Z" fill="white"/>
</svg>
