<svg width="21" height="21" viewBox="0 0 21 21" fill="none" xmlns="http://www.w3.org/2000/svg">
<path d="M17.4796 18.3458C16.6644 17.2664 15.6097 16.3911 14.3986 15.7888C13.1876 15.1865 11.8532 14.8737 10.5006 14.8749C9.148 14.8737 7.81361 15.1865 6.60254 15.7888C5.39146 16.3911 4.33678 17.2664 3.52159 18.3458M17.4796 18.3458C19.0703 16.9308 20.1922 15.0657 20.6986 12.9978C21.205 10.9299 21.0709 8.7569 20.314 6.76699C19.557 4.77708 18.2131 3.06428 16.4604 1.85573C14.7077 0.647187 12.629 0 10.5 0C8.37102 0 6.29234 0.647187 4.53962 1.85573C2.78691 3.06428 1.44297 4.77708 0.686042 6.76699C-0.0708849 8.7569 -0.205038 10.9299 0.301374 12.9978C0.807785 15.0657 1.93083 16.9308 3.52159 18.3458M17.4796 18.3458C15.5593 20.0587 13.0738 21.0037 10.5006 21C7.92695 21.0039 5.44219 20.059 3.52159 18.3458M14.0006 7.87478C14.0006 8.80305 13.6318 9.69331 12.9755 10.3497C12.3191 11.0061 11.4288 11.3748 10.5006 11.3748C9.57233 11.3748 8.68209 11.0061 8.02571 10.3497C7.36933 9.69331 7.00058 8.80305 7.00058 7.87478C7.00058 6.94651 7.36933 6.05626 8.02571 5.39987C8.68209 4.74348 9.57233 4.37473 10.5006 4.37473C11.4288 4.37473 12.3191 4.74348 12.9755 5.39987C13.6318 6.05626 14.0006 6.94651 14.0006 7.87478Z" stroke="#2563EB" stroke-width="1.5" stroke-linecap="round" stroke-linejoin="round"/>
</svg>
