<svg width="14" height="14" viewBox="0 0 14 14" fill="none" xmlns="http://www.w3.org/2000/svg">
<path fill-rule="evenodd" clip-rule="evenodd" d="M4.81233 2.1875H11.3748C11.4909 2.1875 11.6021 2.23359 11.6842 2.31564C11.7662 2.39769 11.8123 2.50897 11.8123 2.625V9.1875C11.8123 9.30353 11.7662 9.41481 11.6842 9.49686C11.6021 9.57891 11.4909 9.625 11.3748 9.625C11.2588 9.625 11.1475 9.57891 11.0655 9.49686C10.9834 9.41481 10.9373 9.30353 10.9373 9.1875V3.68083L2.934 11.6842C2.85106 11.7614 2.74137 11.8035 2.62802 11.8015C2.51468 11.7995 2.40654 11.7536 2.32638 11.6734C2.24623 11.5933 2.20031 11.4851 2.19831 11.3718C2.19631 11.2585 2.23838 11.1488 2.31566 11.0658L10.319 3.0625H4.81233C4.6963 3.0625 4.58502 3.01641 4.50297 2.93436C4.42092 2.85231 4.37483 2.74103 4.37483 2.625C4.37483 2.50897 4.42092 2.39769 4.50297 2.31564C4.58502 2.23359 4.6963 2.1875 4.81233 2.1875Z" fill="#6B7280"/>
</svg>
