<svg width="15" height="20" viewBox="0 0 15 20" fill="none" xmlns="http://www.w3.org/2000/svg">
<path d="M15 12V9.375C15 8.47989 14.6444 7.62145 14.0115 6.98851C13.3786 6.35558 12.5201 6 11.625 6H10.125C9.82663 6 9.54048 5.88147 9.3295 5.6705C9.11853 5.45952 9 5.17337 9 4.875V3.375C9 2.47989 8.64442 1.62145 8.01149 0.988515C7.37855 0.355579 6.52011 0 5.625 0H3.75M3.75 12.75H11.25M3.75 15.75H7.5M6 0H1.125C0.504 0 0 0.504 0 1.125V18.375C0 18.996 0.504 19.5 1.125 19.5H13.875C14.496 19.5 15 18.996 15 18.375V9C15 6.61305 14.0518 4.32387 12.364 2.63604C10.6761 0.948211 8.38695 0 6 0Z" stroke="#2563EB" stroke-width="1.5" stroke-linecap="round" stroke-linejoin="round"/>
</svg>
