<svg width="15" height="21" viewBox="0 0 15 21" fill="none" xmlns="http://www.w3.org/2000/svg">
<path d="M7.5005 16.4983V11.2483M7.5005 11.2483C8.00646 11.2487 8.51045 11.1852 9.0005 11.0593M7.5005 11.2483C6.99454 11.2487 6.49055 11.1852 6.0005 11.0593M9.7505 18.5373C8.26379 18.8196 6.73722 18.8196 5.2505 18.5373M9.0005 20.9203C8.00323 21.0247 6.99778 21.0247 6.0005 20.9203M9.7505 16.4983V16.3063C9.7505 15.3233 10.4085 14.4833 11.2585 13.9903C12.6865 13.1633 13.8019 11.8885 14.4319 10.3633C15.0619 8.83815 15.1713 7.14777 14.7432 5.55412C14.315 3.96046 13.3733 2.55248 12.0638 1.54836C10.7543 0.544227 9.15017 0 7.5 0C5.84984 0 4.24573 0.544227 2.93624 1.54836C1.62675 2.55248 0.684969 3.96046 0.256831 5.55412C-0.171307 7.14777 -0.0619027 8.83815 0.568091 10.3633C1.19809 11.8885 2.3135 13.1633 3.7415 13.9903C4.5915 14.4833 5.2505 15.3233 5.2505 16.3063V16.4983" stroke="#2563EB" stroke-width="1.5" stroke-linecap="round" stroke-linejoin="round"/>
</svg>
