<svg width="17" height="20" viewBox="0 0 17 20" fill="none" xmlns="http://www.w3.org/2000/svg">
<path d="M12 15V18.375C12 18.996 11.496 19.5 10.875 19.5H1.125C0.826631 19.5 0.540483 19.3815 0.329505 19.1705C0.118527 18.9595 0 18.6734 0 18.375V5.625C0 5.004 0.504 4.5 1.125 4.5H3C3.50257 4.49966 4.0043 4.54114 4.5 4.624M12 15H15.375C15.996 15 16.5 14.496 16.5 13.875V9C16.5 4.54 13.257 0.839002 9 0.124002C8.5043 0.0411366 8.00257 -0.000339913 7.5 2.09788e-06H5.625C5.004 2.09788e-06 4.5 0.504002 4.5 1.125V4.624M12 15H5.625C5.32663 15 5.04048 14.8815 4.8295 14.6705C4.61853 14.4595 4.5 14.1734 4.5 13.875V4.624M16.5 11.25V9.375C16.5 8.4799 16.1444 7.62145 15.5115 6.98852C14.8786 6.35558 14.0201 6 13.125 6H11.625C11.3266 6 11.0405 5.88148 10.8295 5.6705C10.6185 5.45952 10.5 5.17337 10.5 4.875V3.375C10.5 2.93179 10.4127 2.49292 10.2431 2.08345C10.0735 1.67397 9.82488 1.30191 9.51149 0.988517C9.19809 0.675119 8.82603 0.426518 8.41656 0.256909C8.00708 0.087299 7.56821 2.09788e-06 7.125 2.09788e-06H6" stroke="#2563EB" stroke-width="1.5" stroke-linecap="round" stroke-linejoin="round"/>
</svg>
