<svg width="20" height="15" viewBox="0 0 20 15" fill="none" xmlns="http://www.w3.org/2000/svg">
<path d="M19.5 2.25V12.75C19.5 13.3467 19.2629 13.919 18.841 14.341C18.419 14.7629 17.8467 15 17.25 15H2.25C1.65326 15 1.08097 14.7629 0.65901 14.341C0.237053 13.919 1.38354e-08 13.3467 1.38354e-08 12.75V2.25M19.5 2.25C19.5 1.65326 19.2629 1.08097 18.841 0.65901C18.419 0.237053 17.8467 0 17.25 0H2.25C1.65326 0 1.08097 0.237053 0.65901 0.65901C0.237053 1.08097 1.38354e-08 1.65326 1.38354e-08 2.25M19.5 2.25V2.493C19.5 2.87715 19.4017 3.25491 19.2144 3.5903C19.0271 3.92569 18.7571 4.20754 18.43 4.409L10.93 9.024C10.5752 9.24253 10.1667 9.35825 9.75 9.35825C9.3333 9.35825 8.92479 9.24253 8.57 9.024L1.07 4.41C0.742921 4.20854 0.472869 3.92669 0.285569 3.5913C0.0982685 3.25591 -4.25813e-05 2.87815 1.38354e-08 2.494V2.25" stroke="#2563EB" stroke-width="1.5" stroke-linecap="round" stroke-linejoin="round"/>
</svg>
