<svg width="9" height="16" viewBox="0 0 9 16" fill="none" xmlns="http://www.w3.org/2000/svg">
<path d="M1.63623 2.53247C1.63623 1.86082 1.93793 1.21667 2.47497 0.741743C3.01201 0.266813 3.74038 0 4.49987 0C5.25935 0 5.98773 0.266813 6.52476 0.741743C7.0618 1.21667 7.3635 1.86082 7.3635 2.53247V8.1039C7.3635 8.77555 7.0618 9.41969 6.52476 9.89462C5.98773 10.3696 5.25935 10.6364 4.49987 10.6364C3.74038 10.6364 3.01201 10.3696 2.47497 9.89462C1.93793 9.41969 1.63623 8.77555 1.63623 8.1039V2.53247Z" fill="#2563EB"/>
<path d="M0.5 6.54545C0.632608 6.54545 0.759785 6.60123 0.853553 6.70052C0.947322 6.7998 1 6.93446 1 7.07487V8.13369C1 9.11655 1.36875 10.0592 2.02513 10.7541C2.6815 11.4491 3.57174 11.8396 4.5 11.8396C5.42826 11.8396 6.3185 11.4491 6.97487 10.7541C7.63125 10.0592 8 9.11655 8 8.13369V7.07487C8 6.93446 8.05268 6.7998 8.14645 6.70052C8.24021 6.60123 8.36739 6.54545 8.5 6.54545C8.63261 6.54545 8.75979 6.60123 8.85355 6.70052C8.94732 6.7998 9 6.93446 9 7.07487V8.13369C8.99998 9.30575 8.59203 10.4367 7.85411 11.3104C7.11619 12.184 6.10008 12.7391 5 12.8695V14.4866H7C7.13261 14.4866 7.25979 14.5424 7.35355 14.6417C7.44732 14.741 7.5 14.8756 7.5 15.016C7.5 15.1565 7.44732 15.2911 7.35355 15.3904C7.25979 15.4897 7.13261 15.5455 7 15.5455H2C1.86739 15.5455 1.74021 15.4897 1.64645 15.3904C1.55268 15.2911 1.5 15.1565 1.5 15.016C1.5 14.8756 1.55268 14.741 1.64645 14.6417C1.74021 14.5424 1.86739 14.4866 2 14.4866H4V12.8695C2.89992 12.7391 1.88381 12.184 1.14589 11.3104C0.407974 10.4367 1.61181e-05 9.30575 0 8.13369V7.07487C0 6.93446 0.0526784 6.7998 0.146447 6.70052C0.240215 6.60123 0.367392 6.54545 0.5 6.54545Z" fill="#2563EB"/>
</svg>
